<?xml version="1.0" encoding="UTF-8"?>
<svg id="Layer_1" data-name="Layer 1" xmlns="http://www.w3.org/2000/svg" viewBox="0 0 288 54">
  <defs>
    <style>
      .cls-1 {
        fill: #5ba491;
      }

      .cls-2 {
        fill: #241f21;
      }
    </style>
  </defs>
  <path class="cls-2" d="M41.85,16.66l-.04-.05c-1.73-2.22-3.97-3.96-6.48-5.03-2.03-.87-4.21-1.31-6.49-1.31-.77,0-1.56.05-2.33.16-6.31.84-11.53,5.09-13.6,11.09-.79,2.28-1.13,4.54-1.01,6.73.11,2.01.6,3.94,1.47,5.76,1.58,3.32,4.35,6.12,7.79,7.89,2.53,1.3,5.33,1.98,8.09,1.98,2.48,0,4.82-.55,6.95-1.62,2.36-1.19,4.42-3.01,6.1-5.4.9-1.28,2.06-3.11,1.77-4.29-.09-.35-.31-.61-.67-.79-.45-.23-.81-.29-1.11-.18-.5.17-.8.78-1.09,1.38v.03c-.11.2-.21.41-.33.6-1.05,1.8-2.33,3.3-3.8,4.45-1.33,1.05-2.83,1.82-4.44,2.29-1.21.35-2.49.53-3.79.53-1.66,0-3.29-.29-4.85-.85-2.85-1.03-5.32-2.96-6.95-5.44-1.88-2.85-2.55-6.28-1.95-9.92.94-5.66,5.05-9.93,10.72-11.14,2.72-.58,5.46-.37,7.93.58,2.24.87,4.23,2.36,5.75,4.3l.07.08,2.28-1.84Z"/>
  <path class="cls-2" d="M38.04,19.75c-2.57-3.32-6.55-4.96-10.8-4.39-4.45.59-8.12,3.59-9.58,7.81-2.31,6.67,1.25,12.02,5.81,14.35,1.71.88,3.68,1.39,5.68,1.39,3.31,0,6.72-1.41,9.21-4.95.72-1.02,1.51-2.31,1.27-3.28-.09-.37-.33-.65-.69-.84-.42-.21-.78-.26-1.11-.15-.52.17-.77.7-1,1.17-.07.14-.13.27-.2.4-2.88,4.92-7.65,5.31-10.87,4.14-3.46-1.25-6.57-4.79-5.73-9.88.6-3.64,3.25-6.39,6.9-7.16,3.44-.73,6.77.5,8.85,3.21l2.26-1.83Z"/>
  <path class="cls-2" d="M77.67,26.43c-1.13,1.21-3.28,2.99-7.29,2.99-5.4,0-9.65-4.12-9.65-9.63,0-5.8,4.72-9.52,9.81-9.52,3.78,0,5.95,1.71,7.08,2.75l-2.15,2.57c-.76-.76-2.47-2.15-4.88-2.15-3.46,0-6.06,2.81-6.06,6.32s2.31,6.43,6.11,6.43c2.13,0,4.04-1.18,4.88-2.07l2.15,2.31Z"/>
  <path class="cls-2" d="M88.5,17.2l2.52,5.93h-5.06l2.54-5.93ZM87.9,10.46l-8.53,18.6h3.94l1.39-2.99h7.61l1.39,2.99h3.91l-8.47-18.6h-1.23Z"/>
  <polygon class="cls-2" points="110.18 20.17 102.23 10.38 101.26 10.62 101.26 29.06 104.78 29.06 104.78 18.88 110.02 25.36 110.34 25.36 115.58 18.75 115.58 29.06 119.07 29.06 119.07 10.62 118.13 10.38 110.18 20.17"/>
  <path class="cls-2" d="M128.25,20.22c3.99.24,5.53-1.15,5.53-3.44,0-2.07-1.6-3.54-5.53-3.04v6.48ZM128.25,23.34v5.72h-3.54V10.8c8.73-1.52,12.72,1.39,12.72,6.01,0,4.28-3.17,6.79-9.18,6.53"/>
  <path class="cls-2" d="M142.03,10.64h3.54v11.38c0,2.41,1.71,4.27,3.88,4.27s3.88-1.86,3.88-4.27v-11.38h3.57v11.44c0,3.8-2.52,7.35-7.48,7.35s-7.4-3.54-7.4-7.35v-11.44Z"/>
  <path class="cls-2" d="M173.01,14.74c-1.1-.6-2.83-1.26-4.14-1.26-1.76,0-3.04.79-3.04,2.02s1.5,2.05,3.52,2.81c4.27,1.68,5.51,3.65,5.43,5.93-.08,3.3-3.04,5.22-6.66,5.19-2.68-.03-4.98-1.15-6.17-2.1l1.34-2.73c1.02.76,2.81,1.68,4.59,1.68,1.63,0,3.36-.63,3.36-1.99,0-1.52-2.1-2.2-4.3-3.17-2.86-1.31-4.67-2.91-4.67-5.61s2.23-5.22,6.3-5.22c2.15,0,4.62,1,5.59,1.49l-1.13,2.96Z"/>
  <path class="cls-2" d="M192.18,19.67c3.86.39,5.54-1.05,5.54-3.2,0-1.97-1.78-3.3-5.54-2.73v5.93ZM198.11,21.71l4.72,7.35h-4.3l-3.88-6.35c-.79.08-1.57.1-2.47.03v6.32h-3.54V10.8c8.71-1.49,12.72,1.18,12.72,5.72,0,2.41-1.52,4.33-3.25,5.19"/>
  <polygon class="cls-2" points="206.53 10.64 206.53 29.06 218.29 29.06 218.29 26.07 210.08 26.07 210.08 21.21 216.63 21.21 216.63 18.22 210.08 18.22 210.08 13.63 218.02 13.63 218.02 10.64 206.53 10.64"/>
  <path class="cls-2" d="M230.05,17.2l2.52,5.93h-5.06l2.54-5.93ZM229.45,10.46l-8.52,18.6h3.94l1.39-2.99h7.61l1.39,2.99h3.91l-8.47-18.6h-1.23Z"/>
  <path class="cls-2" d="M246.11,25.91c3.62.34,8.03-1.23,8.03-6.09,0-4.07-3.07-6.64-8.03-6.09v12.17ZM242.54,10.75c12.28-1.94,15.37,4.56,15.37,9.1s-3.17,10.83-15.37,9.21V10.75Z"/>
  <polygon class="cls-2" points="272.11 10.64 267.78 17.83 263.5 10.64 259.33 10.64 265.92 21.61 265.92 29.06 269.48 29.06 269.48 21.61 276.12 10.64 272.11 10.64"/>
  <polygon class="cls-2" points="61.56 36.63 61.56 43.88 63.26 43.88 63.26 40.95 65.51 40.95 65.51 39.5 63.26 39.5 63.26 38.08 66.13 38.08 66.13 36.63 61.56 36.63"/>
  <path class="cls-2" d="M72.72,42.47c1.04,0,2.07-.8,2.07-2.21s-1.02-2.24-2.07-2.24-2.05.84-2.05,2.24,1,2.21,2.05,2.21M72.72,36.49c2.28,0,3.89,1.72,3.89,3.77s-1.61,3.77-3.89,3.77-3.88-1.72-3.88-3.77,1.59-3.77,3.88-3.77"/>
  <path class="cls-2" d="M79.63,36.63h1.7v4.39c0,.88.6,1.49,1.33,1.49s1.32-.61,1.32-1.49v-4.39h1.7v4.41c0,1.58-1.01,2.99-3.04,2.99s-3.03-1.4-3.03-2.99v-4.41Z"/>
  <polygon class="cls-2" points="89.06 36.62 89.06 43.88 90.75 43.88 90.75 40.17 94.9 43.98 95.28 43.88 95.28 36.63 93.6 36.63 93.6 40.32 89.47 36.53 89.06 36.62"/>
  <path class="cls-2" d="M100.53,42.34c1.03.07,2.69-.29,2.69-2.12,0-1.51-1.15-2.25-2.69-2.1v4.21ZM98.81,36.68c4.91-.8,6.21,1.68,6.21,3.56s-1.3,4.27-6.21,3.64v-7.2Z"/>
  <path class="cls-2" d="M110.73,39.82l.75,1.78h-1.51l.75-1.78ZM110.44,36.57l-3.39,7.31h1.91l.4-.88h2.74l.4.88h1.89l-3.36-7.31h-.6Z"/>
  <polygon class="cls-2" points="115.81 36.63 115.81 38.08 117.72 38.08 117.72 43.88 119.42 43.88 119.42 38.08 121.34 38.08 121.34 36.63 115.81 36.63"/>
  <rect class="cls-2" x="124.51" y="36.63" width="1.7" height="7.25"/>
  <path class="cls-2" d="M133.37,42.47c1.04,0,2.07-.8,2.07-2.21s-1.02-2.24-2.07-2.24-2.05.84-2.05,2.24,1,2.21,2.05,2.21M133.37,36.49c2.28,0,3.89,1.72,3.89,3.77s-1.61,3.77-3.89,3.77-3.88-1.72-3.88-3.77,1.59-3.77,3.88-3.77"/>
  <polygon class="cls-2" points="140.44 36.62 140.44 43.88 142.12 43.88 142.12 40.17 146.27 43.98 146.65 43.88 146.65 36.63 144.97 36.63 144.97 40.32 140.84 36.53 140.44 36.62"/>
  <path class="cls-1" d="M45.88,15.76c-.66-.81-1.85-.93-2.65-.27l-13.88,11.32-3.21-3.35c-.72-.75-1.92-.78-2.67-.06s-.78,1.92-.06,2.67l4.41,4.6s0,0,0,0c.04.05.09.09.14.13,0,0,0,0,0,0,.02.02.04.04.07.05,0,0,.01,0,.02.01.02.01.04.03.06.04,0,0,.02.01.02.02.02.01.03.02.05.03.01,0,.02.01.03.02.01,0,.03.02.04.03.01,0,.02.01.04.02.01,0,.03.01.04.02.01,0,.03.01.04.02.01,0,.02.01.04.02.02,0,.03.01.05.02.01,0,.02,0,.03.01.02,0,.03.01.05.02.01,0,.02,0,.03.01.02,0,.03.01.05.02.01,0,.02,0,.03,0,.02,0,.04.01.05.01.01,0,.02,0,.03,0,.02,0,.04,0,.05.01.01,0,.02,0,.03,0,.02,0,.03,0,.05,0,.01,0,.02,0,.04,0,.02,0,.03,0,.05,0,.01,0,.03,0,.04,0,.01,0,.03,0,.04,0,.02,0,.04,0,.05,0,.01,0,.02,0,.03,0,.09,0,.18,0,.27-.01,0,0,0,0,0,0,.03,0,.06,0,.08-.01,0,0,.01,0,.02,0,.02,0,.05,0,.07-.01,0,0,.01,0,.02,0,.02,0,.04-.01.06-.02,0,0,.02,0,.03,0,.02,0,.04-.01.06-.02.01,0,.02,0,.03-.01.02,0,.03-.01.05-.02.01,0,.03,0,.04-.01.01,0,.03-.01.04-.02.01,0,.03-.01.04-.02.01,0,.03-.01.04-.02.02,0,.03-.02.05-.02.01,0,.02-.01.03-.02.02,0,.03-.02.05-.03.01,0,.02-.01.03-.02.02,0,.03-.02.05-.03,0,0,.02-.01.03-.02.02-.01.03-.02.05-.03,0,0,.02-.01.03-.02.01-.01.03-.02.04-.03,0,0,0,0,.01-.01l15.23-12.42c.81-.66.93-1.85.27-2.65Z"/>
</svg>