<?xml version="1.0" encoding="UTF-8"?>
<svg id="Layer_1" xmlns="http://www.w3.org/2000/svg" version="1.1" viewBox="0 0 288 288">
  <!-- Generator: Adobe Illustrator 29.7.1, SVG Export Plug-In . SVG Version: 2.1.1 Build 8)  -->
  <defs>
    <style>
      .st0 {
        fill: #fff;
      }

      .st1 {
        fill: #5ba491;
      }

      .st2 {
        fill: #dbe241;
      }
    </style>
  </defs>
  <circle class="st1" cx="144" cy="143.82" r="127.28"/>
  <g>
    <path class="st0" d="M83.11,217.03c.11-.14.31-.18.47-.07l3.24,2.44c1.68,1.27,2.13,3.38,1.01,4.87-.82,1.09-2.35,1.27-3.25,1.08.57.81,1.08,2.39.1,3.69-1.19,1.58-3.42,1.71-5.14.4l-3.42-2.58c-.16-.12-.17-.33-.07-.47l7.06-9.36ZM80.64,227.66c.71.53,1.69.41,2.24-.33.53-.71.22-1.76-.51-2.32l-1.54-1.16-1.9,2.52,1.71,1.29ZM83.52,223.44c.72.54,1.64.35,2.18-.36.53-.71.41-1.58-.31-2.12l-1.51-1.14-1.87,2.47,1.51,1.14Z"/>
    <path class="st0" d="M93.78,224.57c.09-.15.29-.23.46-.13l6.3,3.53c.17.09.22.3.13.46l-.71,1.27c-.09.16-.29.23-.46.13l-4.58-2.56-1.42,2.54,3.82,2.14c.15.09.22.3.13.46l-.72,1.28c-.1.17-.3.22-.46.13l-3.82-2.14-1.52,2.71,4.58,2.56c.17.1.22.31.13.46l-.71,1.27c-.09.15-.29.23-.46.13l-6.3-3.52c-.17-.1-.22-.31-.13-.46l5.73-10.25Z"/>
    <path class="st0" d="M110.83,232.78c.05-.17.24-.28.42-.22l3.97,1.27c2.08.67,3.24,2.9,2.59,4.94-.67,2.09-2.92,3.25-4.98,2.59l-2.11-.68-1.27,3.97c-.06.17-.25.27-.42.22l-1.55-.5c-.19-.06-.27-.26-.22-.42l3.58-11.18ZM113.33,239.26c.95.31,1.98-.2,2.3-1.2.3-.93-.27-1.89-1.21-2.19l-1.96-.63-1.09,3.39,1.96.63Z"/>
    <path class="st0" d="M122.92,236.31c.03-.17.2-.31.39-.27l5,.87c2.1.36,3.52,2.34,3.16,4.42-.28,1.61-1.57,2.73-3.2,3.08l1.63,4.85c.08.25-.09.51-.38.46l-1.84-.32c-.16-.03-.23-.13-.25-.21l-1.52-5.03-1.94-.34-.77,4.46c-.03.17-.21.3-.39.28l-1.61-.28c-.19-.03-.3-.21-.27-.39l2.01-11.57ZM127.15,242.45c.93.16,1.87-.5,2.04-1.48.16-.93-.51-1.84-1.44-2l-2.85-.49-.6,3.48,2.85.49Z"/>
    <path class="st0" d="M136.7,238.28c0-.18.15-.33.35-.33l7.21.23c.2,0,.33.17.33.35l-.05,1.45c0,.18-.15.33-.35.32l-5.24-.17-.09,2.9,4.38.14c.18,0,.33.17.33.35l-.05,1.47c0,.2-.17.33-.35.33l-4.38-.14-.1,3.1,5.24.17c.2,0,.33.17.33.35l-.05,1.45c0,.18-.15.33-.35.32l-7.21-.23c-.2,0-.33-.17-.33-.35l.37-11.73Z"/>
    <path class="st0" d="M149.22,238.32c-.02-.18.11-.35.3-.37l4.15-.43c2.17-.22,4.13,1.36,4.35,3.49.22,2.19-1.37,4.15-3.53,4.37l-2.21.23.43,4.15c.02.18-.12.35-.3.37l-1.62.17c-.19.02-.35-.12-.37-.3l-1.2-11.68ZM154.12,243.25c.99-.1,1.73-.98,1.63-2.02-.1-.97-1-1.63-1.99-1.53l-2.05.21.36,3.55,2.05-.21Z"/>
    <path class="st0" d="M162.98,248.36l2.48-12.91c.03-.11.09-.22.24-.26l.17-.04c.17-.04.26.03.34.12l8.17,10.27c.16.2.08.45-.18.52l-1.5.37c-.26.06-.4,0-.58-.22l-1.31-1.65-5.14,1.28-.38,2.07c-.03.19-.14.4-.41.47l-1.5.37c-.26.06-.45-.13-.4-.37ZM169.5,242.86l-2.66-3.36h-.05s-.75,4.22-.75,4.22l3.46-.86Z"/>
    <path class="st0" d="M175.09,232.99c-.07-.16,0-.36.18-.44l4.69-1.93c1.97-.81,4.22.11,5.02,2.05.62,1.51.13,3.15-1.06,4.31l3.96,3.24c.2.17.2.48-.08.59l-1.72.71c-.15.06-.26.01-.32-.04l-3.97-3.45-1.82.75,1.72,4.18c.07.16-.02.37-.18.44l-1.51.62c-.18.07-.37-.02-.44-.18l-4.46-10.86ZM181.93,235.93c.87-.36,1.31-1.42.94-2.34-.36-.87-1.41-1.28-2.28-.92l-2.67,1.1,1.34,3.26,2.67-1.1Z"/>
    <path class="st0" d="M187.8,227.31c-.09-.15-.05-.36.12-.46l6.24-3.64c.17-.1.37-.03.46.12l.73,1.26c.09.15.05.36-.12.46l-4.54,2.64,1.46,2.51,3.78-2.21c.15-.09.37-.03.46.12l.74,1.27c.1.17.03.37-.12.46l-3.79,2.21,1.56,2.68,4.54-2.64c.17-.1.37-.03.46.12l.73,1.26c.09.15.05.36-.12.46l-6.24,3.63c-.17.1-.37.03-.46-.12l-5.91-10.14Z"/>
    <path class="st0" d="M198.46,220.75c-.11-.14-.1-.35.04-.46l3.28-2.63c2.67-2.14,6.6-1.71,8.73.95,2.15,2.69,1.7,6.61-.98,8.75l-3.28,2.62c-.14.11-.35.08-.46-.06l-7.33-9.18ZM208.02,225.8c1.8-1.44,2.03-3.85.58-5.66-1.44-1.8-3.84-2.11-5.64-.67l-1.58,1.26,5.06,6.33,1.58-1.26Z"/>
  </g>
  <g>
    <path class="st0" d="M81.91,57.43c-.1-.15-.07-.36.1-.47l3.48-2.3c1.82-1.2,4.29-.71,5.48,1.08,1.21,1.83.71,4.32-1.1,5.51l-1.85,1.22,2.3,3.48c.1.15.05.37-.1.47l-1.36.9c-.16.11-.37.05-.47-.1l-6.48-9.79ZM88.54,59.53c.83-.55,1.08-1.68.51-2.55-.54-.81-1.65-.97-2.47-.43l-1.72,1.14,1.97,2.97,1.72-1.14Z"/>
    <path class="st0" d="M94.23,49.82c-.08-.16-.02-.37.16-.45l4.58-2.19c1.92-.91,4.22-.12,5.13,1.78.7,1.47.3,3.14-.83,4.37l4.13,3.02c.21.15.22.47-.05.59l-1.68.8c-.14.07-.26.03-.33-.02l-4.15-3.23-1.78.85,1.95,4.09c.08.16,0,.37-.16.45l-1.47.7c-.18.08-.37,0-.45-.16l-5.05-10.6ZM101.22,52.38c.85-.4,1.24-1.49.81-2.39-.4-.85-1.48-1.2-2.33-.8l-2.61,1.25,1.52,3.19,2.61-1.24Z"/>
    <path class="st0" d="M108.66,43.56c-.05-.17.03-.37.22-.42l6.89-2.15c.19-.06.37.05.42.22l.43,1.39c.05.17-.04.36-.22.42l-5.01,1.57.87,2.77,4.18-1.31c.17-.05.37.06.42.22l.44,1.4c.06.19-.05.37-.22.42l-4.18,1.31.93,2.96,5.01-1.57c.18-.06.37.05.42.22l.43,1.39c.05.17-.03.36-.22.42l-6.89,2.16c-.19.06-.37-.05-.42-.22l-3.5-11.2Z"/>
    <path class="st0" d="M122.53,39.73c-.03-.17.08-.35.28-.39l4.11-.69c2.15-.36,4.21,1.09,4.57,3.21.36,2.17-1.11,4.23-3.24,4.59l-2.19.37.69,4.11c.03.17-.1.36-.28.39l-1.61.27c-.19.03-.36-.1-.39-.28l-1.94-11.58ZM127.73,44.34c.98-.16,1.67-1.09,1.5-2.12-.16-.96-1.11-1.56-2.09-1.39l-2.03.34.59,3.52,2.03-.34Z"/>
    <path class="st0" d="M134.46,49.55l5.1-12.11c.05-.11.14-.2.29-.2h.18c.18-.01.25.07.31.18l5.87,11.73c.11.23-.02.46-.28.47l-1.54.05c-.27.01-.39-.09-.53-.34l-.93-1.88-5.3.18-.8,1.94c-.06.18-.22.36-.5.37l-1.54.06c-.27,0-.42-.22-.32-.45ZM141.98,45.51l-1.91-3.84h-.05s-1.6,3.96-1.6,3.96l3.56-.12Z"/>
    <path class="st0" d="M151.49,37.88c.02-.18.18-.32.37-.3l5.04.58c2.12.24,3.65,2.13,3.41,4.23-.19,1.62-1.41,2.82-3.02,3.26l1.9,4.75c.1.24-.06.51-.36.48l-1.85-.21c-.16-.02-.24-.12-.26-.19l-1.81-4.94-1.96-.22-.51,4.49c-.02.18-.2.32-.37.3l-1.62-.19c-.19-.02-.32-.2-.3-.37l1.34-11.67ZM156.06,43.76c.93.11,1.84-.61,1.95-1.6.11-.93-.61-1.8-1.55-1.91l-2.87-.33-.4,3.51,2.87.33Z"/>
    <path class="st0" d="M167.04,40.24c.05-.17.22-.29.41-.24l6.98,1.82c.19.05.29.24.24.41l-.37,1.41c-.05.17-.22.29-.41.24l-5.08-1.33-.73,2.81,4.24,1.11c.17.05.29.24.24.41l-.37,1.42c-.05.19-.24.29-.41.24l-4.24-1.11-.78,3,5.08,1.33c.19.05.29.24.24.41l-.37,1.41c-.04.17-.22.29-.41.24l-6.98-1.82c-.19-.05-.29-.24-.24-.41l2.96-11.36Z"/>
    <path class="st0" d="M188.1,49.39l-2.44-1.18c-.17-.08-.23-.29-.16-.45l.63-1.31c.08-.16.27-.24.45-.16l6.98,3.37c.18.09.23.29.16.45l-.63,1.31c-.08.16-.28.24-.45.16l-2.44-1.18-4.33,8.96c-.08.16-.29.23-.45.15l-1.49-.72c-.16-.08-.23-.29-.16-.45l4.33-8.96Z"/>
    <path class="st0" d="M203.64,55.61c2.94,1.99,3.68,5.95,1.69,8.88-1.99,2.94-5.92,3.68-8.86,1.69-2.93-1.99-3.69-5.91-1.7-8.84s5.93-3.72,8.86-1.73ZM197.77,64.27c1.85,1.25,4.4.78,5.65-1.07,1.25-1.85.77-4.43-1.08-5.68-1.85-1.25-4.41-.74-5.66,1.11-1.25,1.85-.77,4.39,1.08,5.64Z"/>
  </g>
  <path class="st0" d="M218.31,94.08c-2.93-3.57-8.19-4.09-11.76-1.16l-6.63,5.44c-13.95-17.74-35.25-28.2-58-28.2-40.68,0-73.78,33.1-73.78,73.78s33.1,73.78,73.78,73.78c29.46,0,56.05-17.47,67.75-44.52,1.38-3.18-.09-6.87-3.26-8.24-3.17-1.37-6.87.09-8.24,3.26-9.71,22.45-31.79,36.96-56.24,36.96-33.77,0-61.25-27.47-61.25-61.25s27.48-61.25,61.25-61.25c18.97,0,36.73,8.76,48.31,23.62l-7.14,5.86c-9.82-12.76-24.84-20.26-41.18-20.26-28.69,0-52.03,23.34-52.03,52.03s23.34,52.03,52.03,52.03c21.08,0,39.9-12.48,47.95-31.8,1.33-3.2-.18-6.86-3.37-8.2-3.19-1.33-6.86.18-8.2,3.37-6.1,14.63-20.37,24.08-36.38,24.08-21.78,0-39.49-17.72-39.49-39.49s17.72-39.49,39.49-39.49c12.53,0,24.04,5.8,31.49,15.67l-28.33,23.25-14.1-14.56c-3.21-3.31-8.5-3.4-11.82-.19-3.32,3.21-3.4,8.5-.19,11.82l19.45,20.08c1.63,1.69,3.81,2.54,6.01,2.54,1.87,0,3.75-.63,5.3-1.9l67.43-55.33c3.57-2.93,4.09-8.19,1.16-11.76Z"/>
  <path class="st2" d="M218.3,94.08c-2.93-3.57-8.19-4.09-11.76-1.16l-61.48,50.45-14.1-14.56c-3.21-3.31-8.5-3.4-11.82-.19-3.32,3.21-3.4,8.5-.19,11.82l19.45,20.08c1.63,1.69,3.81,2.54,6.01,2.54,1.87,0,3.75-.63,5.3-1.9l67.43-55.33c3.57-2.93,4.09-8.19,1.16-11.76Z"/>
</svg>